<svg xmlns="http://www.w3.org/2000/svg" viewBox="0 0 48 48">
  <rect x="3" y="3" width="42" height="42" rx="9" fill="#eef2f4"/>
  <rect x="3" y="3" width="42" height="42" rx="9" fill="none" stroke="#c7ced2" stroke-width="1.5"/>
  <path d="M13 17h22c3.9 0 7 3.1 7 7l-1.6 8.2c-.4 2.2-2.4 3.8-4.7 3.8-1.5 0-2.9-.7-3.8-1.9L29.6 31H18.4l-2.3 3.1c-.9 1.2-2.3 1.9-3.8 1.9-2.3 0-4.3-1.6-4.7-3.8L6 24c0-3.9 3.1-7 7-7z" fill="#4a5560"/>
  <rect x="12.5" y="21.5" width="9" height="3" rx="1.5" fill="#eef2f4"/>
  <rect x="15.5" y="18.5" width="3" height="9" rx="1.5" fill="#eef2f4"/>
  <circle cx="31" cy="20.5" r="2" fill="#7ec8a9"/>
  <circle cx="35.5" cy="24.5" r="2" fill="#e8b04b"/>
  <circle cx="26.5" cy="24.5" r="2" fill="#5a9bd4"/>
  <circle cx="31" cy="28.5" r="2" fill="#d47a7a"/>
</svg>
